<?xml version="1.0" standalone="no"?>
<!DOCTYPE svg PUBLIC "-//W3C//DTD SVG 20010904//EN"
 "http://www.w3.org/TR/2001/REC-SVG-20010904/DTD/svg10.dtd">
<svg version="1.0" xmlns="http://www.w3.org/2000/svg"
 width="842.000000pt" height="296.000000pt" viewBox="0 0 842.000000 296.000000"
 preserveAspectRatio="xMidYMid meet">

<g transform="translate(0.000000,296.000000) scale(0.100000,-0.100000)"
fill="#000000" stroke="none">
<path d="M6915 2455 c-300 -44 -526 -187 -625 -396 -57 -120 -65 -184 -65
-489 1 -271 1 -276 29 -365 35 -115 83 -193 170 -280 106 -105 247 -170 446
-206 113 -21 451 -18 562 4 210 42 341 108 451 227 74 80 117 155 148 260 19
66 22 104 26 326 3 162 1 278 -6 325 -43 274 -201 449 -499 550 -162 55 -432
74 -637 44z m369 -491 c57 -29 94 -80 106 -143 5 -30 10 -136 10 -236 0 -213
-9 -276 -48 -324 -49 -61 -92 -76 -212 -76 -121 0 -168 18 -217 82 l-28 36 -3
256 c-2 141 0 271 3 289 8 42 77 113 125 129 19 7 78 11 130 10 74 -2 104 -7
134 -23z"/>
<path d="M446 2429 l-26 -20 0 -824 0 -824 26 -20 c25 -20 39 -21 269 -21 230
0 244 1 269 21 l26 20 2 350 3 349 275 -352 c151 -193 289 -359 305 -369 27
-17 53 -19 252 -19 210 0 224 1 243 20 20 20 20 33 20 843 0 695 -2 826 -14
843 -13 18 -30 19 -268 22 -240 3 -256 2 -279 -17 l-24 -19 -2 -373 c-2 -204
-4 -373 -5 -375 -2 -1 -126 168 -277 377 -206 284 -283 382 -307 394 -26 12
-75 15 -247 15 -202 0 -216 -1 -241 -21z"/>
<path d="M2424 2425 l-24 -24 2 -822 3 -821 24 -19 c22 -18 50 -19 821 -19
771 0 799 1 821 19 24 19 24 21 24 219 0 183 -2 202 -19 221 -19 21 -23 21
-528 21 l-508 0 0 80 0 80 428 0 c423 0 429 0 448 21 17 19 19 38 19 204 0
166 -2 185 -19 204 -19 21 -25 21 -448 21 l-428 0 0 80 0 80 495 0 c482 0 496
1 515 20 19 19 20 33 20 218 0 108 -4 202 -8 208 -22 33 -48 34 -832 34 l-781
0 -25 -25z"/>
<path d="M4384 2425 l-24 -24 2 -822 3 -821 24 -19 c22 -18 42 -19 295 -19
226 1 274 3 291 16 19 14 20 30 25 287 l5 271 223 -276 c123 -151 235 -280
248 -287 33 -15 687 -16 715 -1 12 7 19 21 19 40 0 29 -27 65 -525 690 -72 91
-134 170 -138 177 -5 8 104 148 286 370 162 197 297 368 301 380 5 16 1 28
-14 43 -20 20 -27 21 -349 18 -313 -3 -330 -4 -351 -23 -13 -11 -111 -130
-219 -264 l-196 -245 -5 251 c-3 138 -7 253 -10 256 -26 23 -68 27 -315 27
l-266 0 -25 -25z"/>
</g>
</svg>
